# xmcd CD database file
#
# Track frame offsets:
#	150
#	17155
#	34242
#	53912
#	70562
#	87640
#	106125
#	120187
#	139230
#	157432
#	177922
#	193942
#
# Disc length: 2804 seconds
#
# Revision: 5
# Processed by: cddbd v1.4PL0 Copyright (c) Steve Scherf et al.
# Submitted via: CDex 1.40Beta9
#
DISCID=a80af20c
DTITLE=Bellamy Brothers - Our Danish Collection - CD 2
DYEAR=2000
DGENRE=Country
TTITLE0=Houston
TTITLE1=Highway Of Regret
TTITLE2=Come Back Gene And Roy
TTITLE3=Vertical Expression
TTITLE4=Kookaburra Blues
TTITLE5=Lonely Planet
TTITLE6=The Ex-Files (With Buck Owens)
TTITLE7=Old Country - New Country
TTITLE8=Shero
TTITLE9=Fountain Of Middle Age
TTITLE10=Forever Ain't Long Enough
TTITLE11=Vertical Expression. (Spanish Version) (With Freddy Fender)
EXTD=YEAR: 2000 ID3G: 2
EXTT0=
EXTT1=
EXTT2=
EXTT3=
EXTT4=
EXTT5=
EXTT6=
EXTT7=
EXTT8=
EXTT9=
EXTT10=
EXTT11=
PLAYORDER=
